<svg width="17" height="21" viewBox="0 0 17 21" fill="none" xmlns="http://www.w3.org/2000/svg">
<path d="M13.4418 21H3.5582C2.61482 20.999 1.71037 20.6229 1.0433 19.9544C0.376228 19.2859 0.00101969 18.3794 0 17.4339L0 3.56607C0.00101969 2.6206 0.376228 1.71416 1.0433 1.04561C1.71037 0.377066 2.61482 0.00102909 3.5582 7.14984e-06H10.3798C10.7173 -0.000792501 11.0517 0.0654913 11.3635 0.195024C11.6754 0.324558 11.9585 0.51477 12.1965 0.754658L16.247 4.8131C16.4864 5.0518 16.6763 5.33571 16.8055 5.64841C16.9348 5.96111 17.0009 6.29639 17 6.63486V17.4339C16.999 18.3794 16.6238 19.2859 15.9567 19.9544C15.2896 20.6229 14.3852 20.999 13.4418 21ZM3.5582 1.18861C2.92926 1.18929 2.32627 1.43999 1.88154 1.8857C1.43681 2.33142 1.18666 2.93574 1.18598 3.56607V17.4339C1.18666 18.0643 1.43681 18.6686 1.88154 19.1143C2.32627 19.56 2.92926 19.8107 3.5582 19.8114H13.4418C14.0708 19.8108 14.6739 19.5601 15.1188 19.1144C15.5637 18.6687 15.814 18.0644 15.8148 17.4339V6.63563C15.8149 6.4533 15.7791 6.27274 15.7095 6.10429C15.6398 5.93584 15.5377 5.78281 15.409 5.65397L11.3585 1.59579C11.0982 1.33677 10.7466 1.19079 10.3798 1.18938L3.5582 1.18861ZM8.50064 15.057C8.34343 15.0568 8.19272 14.9941 8.08156 14.8827C7.97039 14.7713 7.90785 14.6202 7.90765 14.4627V12.0847H5.53492C5.37765 12.0847 5.22682 12.0221 5.11561 11.9107C5.0044 11.7992 4.94193 11.648 4.94193 11.4904C4.94193 11.3328 5.0044 11.1816 5.11561 11.0702C5.22682 10.9587 5.37765 10.8961 5.53492 10.8961H7.90688V8.51943C7.90688 8.36178 7.96937 8.21058 8.0806 8.09911C8.19183 7.98763 8.34269 7.925 8.5 7.925C8.6573 7.925 8.80816 7.98763 8.91939 8.09911C9.03063 8.21058 9.09311 8.36178 9.09311 8.51943V10.8969H11.4653C11.6226 10.8969 11.7734 10.9595 11.8846 11.071C11.9958 11.1824 12.0583 11.3336 12.0583 11.4912C12.0583 11.6488 11.9958 11.8 11.8846 11.9114C11.7734 12.0229 11.6226 12.0855 11.4653 12.0855H9.09311V14.463C9.09284 14.6204 9.03034 14.7713 8.9193 14.8826C8.80825 14.9939 8.65771 15.0567 8.50064 15.057Z" fill="white"/>
</svg>
